<?xml version="1.0" encoding="UTF-8"?>
<svg width="256" height="256" viewBox="0 0 256 256" xmlns="http://www.w3.org/2000/svg">
  <!-- Background -->
  <rect width="256" height="256" fill="none"/>
  
  <!-- Toast slice - organic bread shape with natural curves like real toast -->
  <path d="M 65 85 
           Q 60 82 58 78 Q 56 74 60 70 Q 64 68 70 68
           L 95 68 Q 100 67 105 68
           L 150 68 Q 155 67 160 68
           L 186 68 Q 192 68 196 70 Q 200 74 198 78 Q 196 82 191 85
           L 191 115 Q 192 120 191 125
           L 191 165 Q 192 170 191 175
           L 191 195 Q 196 198 198 202 Q 200 206 196 210 Q 192 212 186 212
           L 160 212 Q 155 213 150 212
           L 105 212 Q 100 213 95 212
           L 70 212 Q 64 212 60 210 Q 56 206 58 202 Q 60 198 65 195
           L 65 175 Q 64 170 65 165
           L 65 125 Q 64 120 65 115
           Z" 
        fill="#E8B870" stroke="#C68642" stroke-width="3"/>
  
  <!-- Darker crust top edge -->
  <path d="M 65 85 
           Q 60 82 58 78 Q 56 74 60 70 Q 64 68 70 68
           L 95 68 Q 100 67 105 68
           L 150 68 Q 155 67 160 68
           L 186 68 Q 192 68 196 70 Q 200 74 198 78 Q 196 82 191 85
           L 65 85 Z" 
        fill="#C68642" opacity="0.9"/>
  
  <!-- Darker crust bottom edge -->
  <path d="M 65 195 
           L 191 195 Q 196 198 198 202 Q 200 206 196 210 Q 192 212 186 212
           L 160 212 Q 155 213 150 212
           L 105 212 Q 100 213 95 212
           L 70 212 Q 64 212 60 210 Q 56 206 58 202 Q 60 198 65 195 Z" 
        fill="#C68642" opacity="0.9"/>
  
  <!-- Left crust edge -->
  <path d="M 65 85 L 65 195 L 73 195 Q 73 140 73 85 Z" 
        fill="#C68642" opacity="0.6"/>
  
  <!-- Right crust edge -->
  <path d="M 191 85 Q 191 140 191 195 L 183 195 L 183 85 Z" 
        fill="#C68642" opacity="0.6"/>
  
  <!-- Toast texture - small brown spots to simulate toasted bread -->
  <ellipse cx="85" cy="95" rx="8" ry="6" fill="#C68642" opacity="0.3"/>
  <ellipse cx="170" cy="100" rx="7" ry="5" fill="#C68642" opacity="0.25"/>
  <ellipse cx="110" cy="110" rx="6" ry="7" fill="#B07842" opacity="0.3"/>
  <ellipse cx="150" cy="115" rx="9" ry="6" fill="#C68642" opacity="0.28"/>
  <ellipse cx="90" cy="170" rx="7" ry="6" fill="#C68642" opacity="0.25"/>
  <ellipse cx="165" cy="175" rx="8" ry="7" fill="#B07842" opacity="0.3"/>
  <ellipse cx="120" cy="185" rx="6" ry="5" fill="#C68642" opacity="0.27"/>
  <ellipse cx="175" cy="165" rx="7" ry="8" fill="#C68642" opacity="0.26"/>
  <ellipse cx="100" cy="190" rx="5" ry="6" fill="#B07842" opacity="0.28"/>
  
  <!-- Cute face -->
  <!-- Left eye -->
  <circle cx="100" cy="135" r="7" fill="#5C4033"/>
  <circle cx="102" cy="133" r="2.5" fill="#FFFFFF"/>
  
  <!-- Right eye -->
  <circle cx="156" cy="135" r="7" fill="#5C4033"/>
  <circle cx="158" cy="133" r="2.5" fill="#FFFFFF"/>
  
  <!-- Happy smile -->
  <path d="M 105 160 Q 128 175 151 160" stroke="#5C4033" stroke-width="4" fill="none" stroke-linecap="round"/>
  
  <!-- Rosy cheeks - subtle -->
  <ellipse cx="78" cy="150" rx="10" ry="8" fill="#E89B7C" opacity="0.4"/>
  <ellipse cx="178" cy="150" rx="10" ry="8" fill="#E89B7C" opacity="0.4"/>
</svg>