<?xml version="1.0" encoding="UTF-8"?>
<svg width="256" height="256" viewBox="0 0 256 256" xmlns="http://www.w3.org/2000/svg">
  <!-- Background -->
  <rect width="256" height="256" fill="none"/>
  
  <!-- Toast slice - realistic bread shape with slightly wavy edges -->
  <path d="M 60 80 Q 58 75 62 72 L 194 72 Q 198 75 196 80 L 196 200 Q 198 205 194 208 L 62 208 Q 58 205 60 200 Z" 
        fill="#E8B870" stroke="#C68642" stroke-width="3"/>
  
  <!-- Darker crust edges -->
  <path d="M 60 80 Q 58 75 62 72 L 194 72 Q 198 75 196 80 L 196 88 L 60 88 Z" 
        fill="#C68642" opacity="0.9"/>
  <path d="M 60 200 L 60 208 Q 58 205 62 208 L 194 208 Q 198 205 196 208 L 196 200 Z" 
        fill="#C68642" opacity="0.9"/>
  
  <!-- Left crust edge -->
  <path d="M 60 80 L 60 200 L 68 200 L 68 80 Z" 
        fill="#C68642" opacity="0.6"/>
  
  <!-- Right crust edge -->
  <path d="M 196 80 L 196 200 L 188 200 L 188 80 Z" 
        fill="#C68642" opacity="0.6"/>
  
  <!-- Toast texture - small brown spots to simulate toasted bread -->
  <ellipse cx="85" cy="95" rx="8" ry="6" fill="#C68642" opacity="0.3"/>
  <ellipse cx="170" cy="100" rx="7" ry="5" fill="#C68642" opacity="0.25"/>
  <ellipse cx="110" cy="110" rx="6" ry="7" fill="#B07842" opacity="0.3"/>
  <ellipse cx="150" cy="115" rx="9" ry="6" fill="#C68642" opacity="0.28"/>
  <ellipse cx="90" cy="170" rx="7" ry="6" fill="#C68642" opacity="0.25"/>
  <ellipse cx="165" cy="175" rx="8" ry="7" fill="#B07842" opacity="0.3"/>
  <ellipse cx="120" cy="185" rx="6" ry="5" fill="#C68642" opacity="0.27"/>
  <ellipse cx="175" cy="165" rx="7" ry="8" fill="#C68642" opacity="0.26"/>
  <ellipse cx="100" cy="190" rx="5" ry="6" fill="#B07842" opacity="0.28"/>
  
  <!-- Cute face -->
  <!-- Left eye -->
  <circle cx="100" cy="135" r="7" fill="#5C4033"/>
  <circle cx="102" cy="133" r="2.5" fill="#FFFFFF"/>
  
  <!-- Right eye -->
  <circle cx="156" cy="135" r="7" fill="#5C4033"/>
  <circle cx="158" cy="133" r="2.5" fill="#FFFFFF"/>
  
  <!-- Happy smile -->
  <path d="M 105 160 Q 128 175 151 160" stroke="#5C4033" stroke-width="4" fill="none" stroke-linecap="round"/>
  
  <!-- Rosy cheeks - subtle -->
  <ellipse cx="78" cy="150" rx="10" ry="8" fill="#E89B7C" opacity="0.4"/>
  <ellipse cx="178" cy="150" rx="10" ry="8" fill="#E89B7C" opacity="0.4"/>
</svg>